<svg xmlns="http://www.w3.org/2000/svg" viewBox="0 0 160 160" role="img" aria-hidden="true"><defs><linearGradient id="gnika" x1="0" y1="0" x2="1" y2="1"><stop offset="0" stop-color="#E6F7F1"/><stop offset="1" stop-color="#E9F0FF"/></linearGradient><clipPath id="cnika"><circle cx="80" cy="80" r="80"/></clipPath></defs><g clip-path="url(#cnika)"><rect width="160" height="160" fill="url(#gnika)"/><circle cx="112" cy="46" r="15" fill="#2E2A33"/><path d="M22 172 C24 128 50 112 80 112 C110 112 136 128 138 172 Z" fill="#7B6CF6"/><path d="M60 114 C66 124 94 124 100 114" stroke="#5B4ED6" stroke-width="5" fill="none"/><rect x="69" y="92" width="22" height="26" rx="10" fill="#F4D3BC"/><ellipse cx="80" cy="70" rx="29" ry="33" fill="#F4D3BC"/><ellipse cx="51" cy="73" rx="5" ry="7" fill="#F4D3BC"/><ellipse cx="109" cy="73" rx="5" ry="7" fill="#F4D3BC"/><path d="M50 70 C48 42 66 30 84 32 C104 34 114 48 110 70 C104 54 92 46 76 46 C64 46 54 54 50 70 Z" fill="#2E2A33"/><circle cx="69" cy="72" r="3" fill="#2B2B33"/><circle cx="91" cy="72" r="3" fill="#2B2B33"/><path d="M72 86 Q80 92 88 86" stroke="#9A5A4A" stroke-width="2.6" fill="none" stroke-linecap="round"/><circle cx="63" cy="83" r="5" fill="#F7A8B8" opacity=".55"/><circle cx="97" cy="83" r="5" fill="#F7A8B8" opacity=".55"/></g></svg>
