<svg xmlns="http://www.w3.org/2000/svg" viewBox="0 0 160 160" role="img" aria-hidden="true"><defs><linearGradient id="gsasha" x1="0" y1="0" x2="1" y2="1"><stop offset="0" stop-color="#FFF0D9"/><stop offset="1" stop-color="#E6F4FF"/></linearGradient><clipPath id="csasha"><circle cx="80" cy="80" r="80"/></clipPath></defs><g clip-path="url(#csasha)"><rect width="160" height="160" fill="url(#gsasha)"/><path d="M22 172 C24 128 50 112 80 112 C110 112 136 128 138 172 Z" fill="#FF7A45"/><path d="M84 124 L74 142 H84 L78 158 L94 134 H84 L90 124 Z" fill="#FFE27A"/><rect x="69" y="92" width="22" height="26" rx="10" fill="#E9B996"/><ellipse cx="80" cy="70" rx="29" ry="33" fill="#E9B996"/><ellipse cx="51" cy="73" rx="5" ry="7" fill="#E9B996"/><ellipse cx="109" cy="73" rx="5" ry="7" fill="#E9B996"/><path d="M51 60 C54 38 72 30 86 32 C102 34 112 46 109 62 L104 54 L98 60 L92 52 L84 58 L76 50 L68 58 L60 52 Z" fill="#4A3426"/><circle cx="69" cy="72" r="3" fill="#2B2B33"/><circle cx="91" cy="72" r="3" fill="#2B2B33"/><path d="M72 86 Q80 92 88 86" stroke="#9A5A4A" stroke-width="2.6" fill="none" stroke-linecap="round"/></g></svg>
